<mxfile host="app.diagrams.net" modified="2024-02-22T22:37:07.481Z" agent="Mozilla/5.0 (Windows NT 10.0; Win64; x64; rv:122.0) Gecko/20100101 Firefox/122.0" version="23.1.6" etag="wTJTia4mnFrTYaSLS-kT" type="github">
  <diagram name="Strona-1" id="-fPurraMrDKCRp9CAcp4">
    <mxGraphModel>
      <root>
        <mxCell id="0" />
        <mxCell id="1" parent="0" />
      </root>
    </mxGraphModel>
  </diagram>
</mxfile>
